<svg xmlns="http://www.w3.org/2000/svg" width="119" height="134.28" viewBox="0 0 119 134.28"><defs><style>.cls-1{fill:#888;fill-rule:evenodd}</style></defs><path class="cls-1" d="M115.36 99.53c-.46-1.99-.66-4.03-1.14-6.01-.94-3.92-2.94-7.36-6.62-9.13-4.62-2.22-8.48-5.54-12.99-7.85a48.457 48.457 0 0 0-5.95-2.48 10.9 10.9 0 0 1-5.27-3.41c-2.46-3.16-5.86-4.6-9.69-5.28a.7.7 0 0 1-.73-.84c.02-1.51-.01-3.02.01-4.52a1.393 1.393 0 0 1 .3-.85 16.426 16.426 0 0 0 3.92-9.32c.13-.99.31-1.57 1.5-1.69a2.93 2.93 0 0 0 2.47-2.11 21.74 21.74 0 0 0 1.76-8.03c-.1-3.18.93-6.19 1.57-9.26.76-3.7 1.38-7.42.56-11.2-.58-2.69-1.67-5.18-4.22-6.52a4.6 4.6 0 0 1-2.45-2.94C77.01 4 73.71 1.97 69.7.96A44.42 44.42 0 0 0 51.33.95a27.543 27.543 0 0 0-11.09 5.26 17.436 17.436 0 0 0-5.68 9.3 14.991 14.991 0 0 0 .64 7.79 5.489 5.489 0 0 1 .17 2.75 11.9 11.9 0 0 0 .66 7.74 2.189 2.189 0 0 1 .05 1.27c-.73 3.34-.93 6.65.39 9.91.62 1.51 1.33 2.89 3.35 2.81a1.013 1.013 0 0 1 .66.65 11.318 11.318 0 0 1 .42 2.31 13.421 13.421 0 0 0 3.77 8.44 2.176 2.176 0 0 1 .65 1.67c-.04 1.32.03 2.64-.05 3.95a1.867 1.867 0 0 1-.61 1.23 35.662 35.662 0 0 1-3.48 2.63 5.24 5.24 0 0 1-1.86.62 10 10 0 0 0-5.58 2.82 14.393 14.393 0 0 1-6.33 3.53 17.066 17.066 0 0 0-7.47 4.87 5.014 5.014 0 0 1-2.65 1.53 7.591 7.591 0 0 0-2.2 1.22c-1.21.78-2.38 1.63-3.57 2.43a2.9 2.9 0 0 1-.7.3c-3.95 1.44-5.89 4.27-6.56 8.36-.76 4.64-1.98 9.19-2.97 13.79-.4 1.84-.72 22.98-1.07 24.83-.09.44-.16.88-.23 1.32h119c-1.21-5.15-2.45-29.59-3.63-34.75z"/></svg>