<svg xmlns="http://www.w3.org/2000/svg" width="50" height="50"><path fill-rule="evenodd" fill="#4F4F4F" d="M46.515 49.991H3.48a3.485 3.485 0 0 1-3.487-3.479V8.237A3.484 3.484 0 0 1 3.48 4.758h2.483c.799 0 1.445.644 1.445 1.441v1.795h2.277V3.607A2.627 2.627 0 0 1 12.313.984a2.628 2.628 0 0 1 2.634 2.623v4.387h2.275V6.199c0-.797.649-1.441 1.447-1.441h12.908a1.44 1.44 0 0 1 1.444 1.441v1.795h2.278V3.607A2.628 2.628 0 0 1 37.931.984a2.626 2.626 0 0 1 2.632 2.623v4.387h2.275V6.199c0-.797.648-1.441 1.446-1.441h2.231c1.93 0 3.49 1.557 3.49 3.479v38.275c0 1.92-1.56 3.479-3.49 3.479zm-1.18-31.51c0-.802-.653-1.454-1.458-1.454H6.05c-.805 0-1.457.652-1.457 1.454v25.451c0 .802.652 1.453 1.457 1.453h37.827c.805 0 1.458-.651 1.458-1.453V18.481zM39.952 39.05h-3.083a2.044 2.044 0 0 1-2.049-2.045v-3.074c0-1.127.914-2.045 2.049-2.045h3.083c1.135 0 2.05.918 2.05 2.045v3.074a2.045 2.045 0 0 1-2.05 2.045zm-.002-8.944h-3.081a2.043 2.043 0 0 1-2.049-2.042v-3.075c0-1.129.914-2.045 2.049-2.045h3.081c1.137 0 2.052.916 2.052 2.045v3.075a2.044 2.044 0 0 1-2.052 2.042zm-8.964 8.944h-3.082a2.048 2.048 0 0 1-2.051-2.045v-3.074a2.05 2.05 0 0 1 2.051-2.045h3.082a2.05 2.05 0 0 1 2.051 2.045v3.074a2.047 2.047 0 0 1-2.051 2.045zm0-8.944h-3.082a2.047 2.047 0 0 1-2.051-2.042v-3.075a2.05 2.05 0 0 1 2.051-2.045h3.082c1.132 0 2.051.916 2.051 2.045v3.075a2.047 2.047 0 0 1-2.051 2.042zm-8.972 8.944h-3.085a2.047 2.047 0 0 1-2.047-2.045v-3.074a2.05 2.05 0 0 1 2.047-2.045h3.085a2.05 2.05 0 0 1 2.049 2.045v3.074a2.047 2.047 0 0 1-2.049 2.045zm0-8.944h-3.085a2.046 2.046 0 0 1-2.047-2.042v-3.075c0-1.129.919-2.045 2.047-2.045h3.085c1.13 0 2.049.916 2.049 2.045v3.075a2.046 2.046 0 0 1-2.049 2.042zm-8.97 8.944H9.963a2.047 2.047 0 0 1-2.05-2.045v-3.074a2.05 2.05 0 0 1 2.05-2.045h3.081a2.05 2.05 0 0 1 2.053 2.045v3.074a2.047 2.047 0 0 1-2.053 2.045zm-.029-8.944H9.928a2.045 2.045 0 0 1-2.047-2.042v-3.075c0-1.129.918-2.045 2.047-2.045h3.087c1.127 0 2.047.916 2.047 2.045v3.075c0 1.128-.92 2.042-2.047 2.042z"/></svg>