<svg xmlns="http://www.w3.org/2000/svg" width="52" height="106"><path fill-rule="evenodd" fill="#3D9F44" d="M29.546 10.997c1.429 12.391 5.364 38.914 8.449 41.999 3.837 3.838 10.001.443 10.001 5.001 0 3.886-10.168 28.743-13.171 36.001h12.171c1.105 0 1.999.894 1.999 1.999v10H-.003v-10c0-1.105.895-1.999 2-1.999h13.168C12.163 86.74 1.997 61.883 1.997 57.997c0-4.558 6.163-1.163 9.998-5.001 3.087-3.085 7.022-29.608 8.451-41.999H-.003v-5a2 2 0 0 1 2-2h19.066c.312-3.041 1.933-3 1.933-3h4s1.62-.041 1.932 3h21.068a2 2 0 0 1 2 2v5h-22.45z"/></svg>