<svg xmlns="http://www.w3.org/2000/svg" width="41" height="70"><path fill-rule="evenodd" fill="#888" d="M25.329 5.044l1.727 18.304h1.787c2.192 0 5.289 14.981 5.289 17.17v2.219c0 2.19-.453 3.963-2.643 3.963l-4.175 1.319v10.99h-13.64v-10.99L9.502 46.7c-2.193 0-2.647-1.773-2.647-3.963v-2.219c0-2.189 3.098-17.17 5.29-17.17h1.787l1.726-18.304c0-3.793 1.069-5.047 4.837-5.047 3.765 0 4.834 1.254 4.834 5.047zM15.204 42.263h9.92v-5.668c-1.377.494-3.128.791-5.032.791-1.841 0-3.531-.28-4.888-.745v5.622zM9.914 5.942V2.795c0-.231 3.233-.588 4.629-.742l-.662 3.889H9.914zm2.314 2.641v5.593h-1.654a.33.33 0 0 0-.33.329v.703c0 .182.147.33.33.33h1.654v5.592c0 .73-.59 1.32-1.323 1.32H4.624a1.32 1.32 0 0 1-1.323-1.32V8.583c0-.728.591-1.321 1.323-1.321h6.281c.733 0 1.323.593 1.323 1.321zm-.925 41.604v5.593H9.12a.331.331 0 0 0-.331.33v.699a.33.33 0 0 0 .331.331h2.183v1.56l-4.035.733c-2.922 0-5.289 1.043-5.289 3.962 0 .225.018.443.045.659h-.707c-.73 0-1.324-.591-1.324-1.319V50.187c0-.729.594-1.322 1.324-1.322h8.662c.731 0 1.324.593 1.324 1.322zm.759 10.195h16.864c.729 0 7.935 1.253 7.935 1.984v7.631H4.127v-7.631c0-.731 7.206-1.984 7.935-1.984zm21.658-.949l-4.036-.733v-1.56h2.184a.331.331 0 0 0 .331-.331v-.699a.332.332 0 0 0-.331-.33h-2.184v-5.593c0-.729.594-1.322 1.325-1.322h8.661c.733 0 1.325.593 1.325 1.322v12.548c0 .728-.592 1.319-1.325 1.319h-.706a5.1 5.1 0 0 0 .045-.659c0-2.919-2.367-3.962-5.289-3.962zM28.762 21.13v-5.589h1.653c.181 0 .33-.149.33-.329v-.71a.331.331 0 0 0-.33-.33h-1.653V8.583c0-.728.59-1.321 1.321-1.321h6.283c.728 0 1.321.593 1.321 1.321V21.13c0 .73-.593 1.32-1.321 1.32h-6.283c-.731 0-1.321-.59-1.321-1.32zm2.313-18.335v3.147h-3.968l-.661-3.889c1.394.154 4.629.511 4.629.742z"/></svg>