<svg xmlns="http://www.w3.org/2000/svg" width="117" height="146"><path fill-rule="evenodd" fill="#888" d="M110.22 26.438c-3.907.041-6.814-3.06-6.838-7.293-.024-4.248 2.854-7.474 6.679-7.489 3.883-.015 7.026 3.398 6.94 7.541-.081 4.027-3.056 7.202-6.781 7.241zm-15.718-3.123c-3.331.031-5.801-2.682-5.821-6.394-.021-3.603 2.38-6.3 5.652-6.35 3.322-.048 6.001 2.748 6.017 6.283.019 3.562-2.577 6.43-5.848 6.461zm-3.529 5.879c-.077 2.968-2.21 5.099-5.018 5.013-2.637-.08-4.709-2.387-4.676-5.204.032-2.875 2.256-5.189 4.956-5.153 2.703.036 4.811 2.415 4.738 5.344zm-4.51 10.828c-.047 1.948-1.449 3.448-3.183 3.41-1.681-.039-3.18-1.693-3.184-3.513-.005-1.974 1.506-3.51 3.377-3.434 1.808.072 3.04 1.53 2.99 3.537zm-12.186-5.437c-1.686-.033-2.57-1.109-2.537-2.837.032-1.751 1.094-2.808 2.662-2.777 1.571.033 2.457 1.131 2.547 2.861-.16 1.811-1.003 2.782-2.672 2.753zm.625 5.169c.037 1.772-.952 2.925-2.353 2.654-.925-.176-2.154-1.48-2.351-2.484-.294-1.523.754-2.648 2.359-2.644 1.478.005 2.288.84 2.345 2.474zm-1.169 22.793c2.197 2.949 2.419 8.811-.161 11.3-4.988 4.835-5.743 11.28-7.063 17.691a98.402 98.402 0 0 1-3.265 12.025c-1.159 3.365-3.397 5.569-7.067 5.481-2.267-.055-4.545.306-6.811.253-1.603-.033-2.378.328-2.378 2.301-.02 5.174-.385 10.36-.262 15.521.06 2.444-.887 3.232-2.772 3.376-1.099.087-2.207.022-3.89.022 0 4.078.059 7.816-.01 11.554-.023 1.303-.052 2.609-.081 3.924H3.743c-3.325-7.346-3.698-14.766-2.276-22.579.129-.769-.022-1.909-.476-2.435-1.399-1.589-1.037-3.145-.522-4.977 1.895-6.632 3.787-13.274 5.411-19.992.604-2.501.776-5.23.645-7.816-.352-7.411 1.341-14.435 3.094-21.451.815-3.268 2.64-5.931 5.088-8.046 1.835-1.59 3.78-3.046 5.464-4.811.544-.583.604-1.974.473-2.928-.062-.438-1.14-1.074-1.713-1.02-2.279.198-3.537-.832-4.414-3.101-.625-1.623-1.774-3.026-2.712-4.495a173.74 173.74 0 0 0-2.68-4.012c-5.301-7.738-4.293-15.772-.706-23.753 1.804-4.022 3.9-7.979 7.943-10.04C23.173 1.063 30.156-1.106 37.785.56c3.236.7 6.571.921 9.776 1.754 5.695 1.469 8.225 4.712 9.049 11.016.063.515.162 1.03.315 1.534 1.107 3.76-.223 7.147-1.442 10.502-.454 1.238-.03 2.115.089 3.222.253 2.423 2.258 2.477 3.166 3.815.494.745.705 2.126.423 2.991-.413 1.283-.472 1.986.686 2.773.513.352.864 1.36.896 2.095.111 2.279-.041 4.504-2.044 6.029-.405.316-.465 1.217-.597 1.874-.724 3.333-2.316 4.791-5.521 4.845-2.832.033-5.666-.131-8.497-.044-2.64.077-4.121 1.446-4.686 4.166-.271 1.337-.705 2.74.896 3.694.496.284.686 1.26.948 1.951 2.943 7.77 5.685 15.619 6.682 24.027.223 1.83 1.169 2.543 2.67 2.86 1.573.329 2.662-.163 3.388-1.764 1.652-3.629 3.486-7.169 5.008-10.863.624-1.525.543-3.365.968-5.01.623-2.421 1.32-4.833 2.176-7.157.635-1.732 1.512-3.376 2.43-4.953.503-.857 1.338-1.493 2.025-2.226.291.054.583.097.877.142-1.23-4.462-3.125-9.306-4.183-13.835-.726-3.397-.565-6.663 1.068-6.949 1.814-.317 2.762 5.405 2.581 6.698-.394 2.86-.122 5.491.432 8.199.314 1.536.534 3.092.886 4.615.122.538.486 1.436.758 1.447 2.751.109 3.426 2.784 4.725 4.539zm-9.18-24.007c-1.119.123-.847 6.589.936 6.282 1.16-.197.495-6.425-.936-6.282z"/></svg>