<svg xmlns="http://www.w3.org/2000/svg" width="117" height="146" viewBox="0 0 117 146"><defs><style>.cls-1{fill:#888;fill-rule:evenodd}</style></defs><path class="cls-1" d="M73.73 62.55c-1.3-1.76-1.97-4.43-4.72-4.54a2.355 2.355 0 0 1-.76-1.45c-.35-1.52-.57-3.08-.89-4.61a23.919 23.919 0 0 1-.43-8.2c.18-1.3-.76-7.02-2.58-6.7-1.63.28-1.79 3.55-1.07 6.95 1.06 4.53 2.96 9.37 4.19 13.83-.3-.04-.59-.09-.88-.14a13.781 13.781 0 0 0-2.03 2.23 32.454 32.454 0 0 0-2.43 4.95c-.85 2.32-1.55 4.74-2.17 7.16-.43 1.64-.35 3.48-.97 5.01-1.52 3.69-3.36 7.23-5.01 10.86a2.7 2.7 0 0 1-3.39 1.76 2.96 2.96 0 0 1-2.67-2.86c-.99-8.4-3.74-16.25-6.68-24.02-.26-.69-.45-1.67-.95-1.95-1.6-.96-1.16-2.36-.89-3.7.56-2.72 2.04-4.09 4.68-4.16 2.84-.09 5.67.07 8.5.04 3.21-.05 4.8-1.51 5.52-4.85a3.542 3.542 0 0 1 .6-1.87c2-1.52 2.15-3.75 2.04-6.03a3.016 3.016 0 0 0-.89-2.09c-1.16-.79-1.1-1.49-.69-2.78a4.053 4.053 0 0 0-.42-2.99c-.91-1.34-2.91-1.39-3.17-3.81-.12-1.11-.54-1.99-.09-3.22 1.22-3.36 2.55-6.75 1.44-10.51a8.83 8.83 0 0 1-.31-1.53c-.82-6.3-3.35-9.55-9.05-11.02-3.2-.83-6.54-1.05-9.77-1.75-7.63-1.67-14.62.5-21.43 3.98-4.04 2.06-6.14 6.02-7.94 10.04-3.59 7.98-4.6 16.01.7 23.75.91 1.33 1.81 2.66 2.68 4.01a26.941 26.941 0 0 1 2.72 4.5c.87 2.27 2.13 3.3 4.41 3.1a2.057 2.057 0 0 1 1.71 1.02 4.142 4.142 0 0 1-.47 2.93c-1.68 1.76-3.63 3.22-5.46 4.81a15.46 15.46 0 0 0-5.09 8.04c-1.75 7.02-3.45 14.05-3.1 21.46a27.649 27.649 0 0 1-.64 7.81C4.26 102.73 2.36 109.37.47 116c-.52 1.84-.88 3.39.52 4.98a3.41 3.41 0 0 1 .48 2.44C.04 131.23.42 138.65 3.74 146h36.23c.03-1.32.06-2.63.08-3.93.07-3.74.01-7.47.01-11.55 1.69 0 2.79.06 3.89-.03 1.89-.14 2.84-.93 2.78-3.37-.13-5.16.24-10.35.26-15.52 0-1.98.77-2.34 2.38-2.3 2.26.05 4.54-.31 6.81-.26 3.67.09 5.9-2.11 7.06-5.48a98.23 98.23 0 0 0 3.27-12.02c1.32-6.41 2.07-12.86 7.06-17.69 2.58-2.49 2.36-8.35.16-11.3zm-8.24-17.73c-1.78.31-2.06-6.16-.94-6.28 1.43-.14 2.1 6.08.94 6.28zm44.57-33.16c-3.82.01-6.7 3.24-6.68 7.49.03 4.23 2.93 7.33 6.84 7.29a7.411 7.411 0 0 0-.16-14.78zm-15.73-1.09c-3.27.05-5.67 2.75-5.65 6.35.02 3.71 2.49 6.43 5.82 6.39a6.156 6.156 0 0 0 5.85-6.46 6.093 6.093 0 0 0-6.02-6.28zm-8.09 13.28A5.054 5.054 0 0 0 81.28 29a5 5 0 0 0 4.67 5.21 4.87 4.87 0 0 0 5.02-5.02 4.99 4.99 0 0 0-4.73-5.34zm-2.77 12.63a3.3 3.3 0 0 0-3.37 3.44 3.52 3.52 0 0 0 3.18 3.51 3.276 3.276 0 0 0 3.18-3.41 3.186 3.186 0 0 0-2.99-3.54zm-9.07-7.51a2.543 2.543 0 0 0-2.66 2.78c-.03 1.73.85 2.8 2.54 2.83 1.67.03 2.51-.94 2.67-2.75-.09-1.73-.98-2.83-2.55-2.86zm-1.85 13.44c1.4.27 2.39-.88 2.35-2.66-.06-1.63-.87-2.47-2.34-2.47a2.171 2.171 0 0 0-2.36 2.64 3.733 3.733 0 0 0 2.35 2.49z"/></svg>