<svg xmlns="http://www.w3.org/2000/svg" width="36" height="36"><path fill-rule="evenodd" fill="#888" d="M8.811 1.405c-2.506.901-2.956 2.18-2.5 3.641.459 1.459 3.944 12.693 4.317 13.826.372 1.131 1.329 1.553 2.397 1.061 1.07-.495 5.177-2.563 11.33.932 6.156 3.494 9.958 1.729 10.735 1.188.769-.54 1.129-1.708.744-2.932-.379-1.224-3.779-12.061-4.051-12.986-.273-.924-.924-1.277-2.198-.946-1.274.33-4.138 1.506-10.503-2.047C14.709.889 11.189.554 8.811 1.405zm-6.652.892a1.662 1.662 0 0 1 2.068 1.089l9.623 30.523a1.63 1.63 0 0 1-1.107 2.037c-.874.252-1.8-.224-2.062-1.088L1.054 4.333a1.626 1.626 0 0 1 1.105-2.036z"/></svg>