<svg xmlns="http://www.w3.org/2000/svg" width="119" height="135"><path fill-rule="evenodd" fill="#888" d="M115.357 99.531c-.453-1.987-.657-4.03-1.133-6.01-.941-3.922-2.943-7.362-6.628-9.134-4.612-2.218-8.477-5.54-12.984-7.851-1.906-.975-3.93-1.758-5.956-2.471-2.058-.725-3.927-1.694-5.263-3.411-2.466-3.165-5.866-4.6-9.691-5.283-.562-.102-.746-.295-.736-.84.024-1.508-.009-3.016.019-4.522.006-.288.101-.645.291-.848 2.448-2.641 3.454-5.886 3.922-9.323.136-.984.309-1.571 1.498-1.685 1.213-.115 2.067-.967 2.472-2.109.932-2.6 1.852-5.206 1.764-8.036-.099-3.182.932-6.189 1.563-9.256.764-3.705 1.38-7.421.566-11.201-.582-2.689-1.668-5.184-4.226-6.523-1.35-.707-1.978-1.557-2.443-2.936-1.385-4.096-4.684-6.119-8.689-7.137C64.738-.303 56.3-.35 51.326.948c-4.029 1.049-7.89 2.563-11.084 5.261-2.89 2.447-4.814 5.695-5.685 9.297-.611 2.529-.142 5.229.644 7.799.264.861.38 1.889.172 2.746-.652 2.68-.425 5.222.655 7.739.159.367.14.864.051 1.27-.73 3.339-.924 6.65.395 9.906.614 1.516 1.323 2.893 3.346 2.811.221-.01.588.388.658.656.212.752.373 1.529.424 2.307.22 3.272 1.549 6.06 3.769 8.442.475.509.662 1 .644 1.668-.039 1.317.038 2.639-.041 3.955-.024.427-.283.952-.611 1.228a37.947 37.947 0 0 1-3.479 2.63c-.527.346-1.224.488-1.866.618-2.131.428-4.037 1.194-5.576 2.821-1.715 1.816-3.999 2.779-6.337 3.53-2.96.948-5.404 2.619-7.464 4.873-.734.801-1.579 1.256-2.655 1.521-.786.193-1.492.761-2.196 1.219-1.207.79-2.378 1.631-3.575 2.436-.207.137-.458.217-.698.303-3.947 1.439-5.89 4.266-6.56 8.355-.756 4.636-1.976 9.196-2.968 13.795-.396 1.84-.722 22.974-1.074 24.822-.085.44-.153.882-.221 1.323h119.001c-1.213-5.152-2.459-29.585-3.638-34.748z"/></svg>