<svg xmlns="http://www.w3.org/2000/svg" style="display:none"><symbol id="arrow"><path fill-rule="evenodd" d="M21.848 4.098c.845.798.845 1.999 0 2.796L8.571 19.48l13.277 12.585c.845.803.845 2.001 0 2.8a2.12 2.12 0 0 1-2.952 0L4.149 20.878c-.847-.798-.847-1.996 0-2.794L18.896 4.098c.422-.4 1.059-.596 1.476-.596.42 0 1.057.196 1.476.596z"/></symbol><symbol id="calendar"><path fill-rule="evenodd" d="M46.515 49.991H3.48a3.485 3.485 0 0 1-3.487-3.479V8.237A3.484 3.484 0 0 1 3.48 4.758h2.483c.799 0 1.445.644 1.445 1.441v1.795h2.277V3.607A2.627 2.627 0 0 1 12.313.984a2.628 2.628 0 0 1 2.634 2.623v4.387h2.275V6.199c0-.797.649-1.441 1.447-1.441h12.908a1.44 1.44 0 0 1 1.444 1.441v1.795h2.278V3.607A2.628 2.628 0 0 1 37.931.984a2.626 2.626 0 0 1 2.632 2.623v4.387h2.275V6.199c0-.797.648-1.441 1.446-1.441h2.231c1.93 0 3.49 1.557 3.49 3.479v38.275c0 1.92-1.56 3.479-3.49 3.479zm-1.18-31.51c0-.802-.653-1.454-1.458-1.454H6.05c-.805 0-1.457.652-1.457 1.454v25.451c0 .802.652 1.453 1.457 1.453h37.827c.805 0 1.458-.651 1.458-1.453V18.481zM39.952 39.05h-3.083a2.044 2.044 0 0 1-2.049-2.045v-3.074c0-1.127.914-2.045 2.049-2.045h3.083c1.135 0 2.05.918 2.05 2.045v3.074a2.045 2.045 0 0 1-2.05 2.045zm-.002-8.944h-3.081a2.043 2.043 0 0 1-2.049-2.042v-3.075c0-1.129.914-2.045 2.049-2.045h3.081c1.137 0 2.052.916 2.052 2.045v3.075a2.044 2.044 0 0 1-2.052 2.042zm-8.964 8.944h-3.082a2.048 2.048 0 0 1-2.051-2.045v-3.074a2.05 2.05 0 0 1 2.051-2.045h3.082a2.05 2.05 0 0 1 2.051 2.045v3.074a2.047 2.047 0 0 1-2.051 2.045zm0-8.944h-3.082a2.047 2.047 0 0 1-2.051-2.042v-3.075a2.05 2.05 0 0 1 2.051-2.045h3.082c1.132 0 2.051.916 2.051 2.045v3.075a2.047 2.047 0 0 1-2.051 2.042zm-8.972 8.944h-3.085a2.047 2.047 0 0 1-2.047-2.045v-3.074a2.05 2.05 0 0 1 2.047-2.045h3.085a2.05 2.05 0 0 1 2.049 2.045v3.074a2.047 2.047 0 0 1-2.049 2.045zm0-8.944h-3.085a2.046 2.046 0 0 1-2.047-2.042v-3.075c0-1.129.919-2.045 2.047-2.045h3.085c1.13 0 2.049.916 2.049 2.045v3.075a2.046 2.046 0 0 1-2.049 2.042zm-8.97 8.944H9.963a2.047 2.047 0 0 1-2.05-2.045v-3.074a2.05 2.05 0 0 1 2.05-2.045h3.081a2.05 2.05 0 0 1 2.053 2.045v3.074a2.047 2.047 0 0 1-2.053 2.045zm-.029-8.944H9.928a2.045 2.045 0 0 1-2.047-2.042v-3.075c0-1.129.918-2.045 2.047-2.045h3.087c1.127 0 2.047.916 2.047 2.045v3.075c0 1.128-.92 2.042-2.047 2.042z"/></symbol><symbol id="card"><path fill-rule="evenodd" opacity=".502" d="M268.197-.001H29.796C13.258-.001-.002 13.23-.002 29.732v163.534c0 16.501 13.26 29.732 29.798 29.732H268.197c16.541 0 29.801-13.231 29.801-29.732V29.732c0-16.502-13.26-29.733-29.801-29.733zm0 193.267H29.796v-29.735h238.401v29.735zm0-74.334H29.796v-89.2h238.401v89.2z"/></symbol><symbol id="cart-header"><path fill-rule="evenodd" d="M25.329 5.044l1.727 18.304h1.787c2.192 0 5.289 14.981 5.289 17.17v2.219c0 2.19-.453 3.963-2.643 3.963l-4.175 1.319v10.99h-13.64V48.019L9.502 46.7c-2.193 0-2.647-1.773-2.647-3.963v-2.219c0-2.189 3.098-17.17 5.29-17.17h1.787l1.726-18.304c0-3.793 1.069-5.047 4.837-5.047 3.765 0 4.834 1.254 4.834 5.047zM15.204 42.263h9.92v-5.668c-1.377.494-3.128.791-5.032.791-1.841 0-3.531-.28-4.888-.745v5.622zM9.914 5.942V2.795c0-.231 3.233-.588 4.629-.742l-.662 3.889H9.914zm2.314 2.641v5.593h-1.654a.33.33 0 0 0-.33.329v.703c0 .182.147.33.33.33h1.654v5.592c0 .73-.59 1.32-1.323 1.32H4.624a1.32 1.32 0 0 1-1.323-1.32V8.583c0-.728.591-1.321 1.323-1.321h6.281c.733 0 1.323.593 1.323 1.321zm-.925 41.604v5.593H9.12a.331.331 0 0 0-.331.33v.699a.33.33 0 0 0 .331.331h2.183v1.56l-4.035.733c-2.922 0-5.289 1.043-5.289 3.962 0 .225.018.443.045.659h-.707c-.73 0-1.324-.591-1.324-1.319V50.187c0-.729.594-1.322 1.324-1.322h8.662c.731 0 1.324.593 1.324 1.322zm.759 10.195h16.864c.729 0 7.935 1.253 7.935 1.984v7.631H4.127v-7.631c0-.731 7.206-1.984 7.935-1.984zm21.658-.949l-4.036-.733v-1.56h2.184a.331.331 0 0 0 .331-.331v-.699a.332.332 0 0 0-.331-.33h-2.184v-5.593c0-.729.594-1.322 1.325-1.322h8.661c.733 0 1.325.593 1.325 1.322v12.548c0 .728-.592 1.319-1.325 1.319h-.706a5.1 5.1 0 0 0 .045-.659c0-2.919-2.367-3.962-5.289-3.962zM28.762 21.13v-5.589h1.653c.181 0 .33-.149.33-.329v-.71a.331.331 0 0 0-.33-.33h-1.653V8.583c0-.728.59-1.321 1.321-1.321h6.283c.728 0 1.321.593 1.321 1.321V21.13c0 .73-.593 1.32-1.321 1.32h-6.283c-.731 0-1.321-.59-1.321-1.32zm2.313-18.335v3.147h-3.968l-.661-3.889c1.394.154 4.629.511 4.629.742z"/></symbol><symbol id="check"><path fill-rule="evenodd" d="M7.818 16.998h-.023a1.792 1.792 0 0 1-1.285-.557L.463 10.048A1.645 1.645 0 0 1 .584 7.65a1.818 1.818 0 0 1 2.495.116l4.765 5.037L19.942.548A1.82 1.82 0 0 1 22.44.482c.707.648.739 1.721.067 2.402L9.101 16.469a1.8 1.8 0 0 1-1.283.529"/></symbol><symbol id="child"><path fill-rule="evenodd" d="M110.22 26.438c-3.907.041-6.814-3.06-6.838-7.293-.024-4.248 2.854-7.474 6.679-7.489 3.883-.015 7.026 3.398 6.94 7.541-.081 4.027-3.056 7.202-6.781 7.241zm-15.718-3.123c-3.331.031-5.801-2.682-5.821-6.394-.021-3.603 2.38-6.3 5.652-6.35 3.322-.048 6.001 2.748 6.017 6.283.019 3.562-2.577 6.43-5.848 6.461zm-3.529 5.879c-.077 2.968-2.21 5.099-5.018 5.013-2.637-.08-4.709-2.387-4.676-5.204.032-2.875 2.256-5.189 4.956-5.153 2.703.036 4.811 2.415 4.738 5.344zm-4.51 10.828c-.047 1.948-1.449 3.448-3.183 3.41-1.681-.039-3.18-1.693-3.184-3.513-.005-1.974 1.506-3.51 3.377-3.434 1.808.072 3.04 1.53 2.99 3.537zm-12.186-5.437c-1.686-.033-2.57-1.109-2.537-2.837.032-1.751 1.094-2.808 2.662-2.777 1.571.033 2.457 1.131 2.547 2.861-.16 1.811-1.003 2.782-2.672 2.753zm.625 5.169c.037 1.772-.952 2.925-2.353 2.654-.925-.176-2.154-1.48-2.351-2.484-.294-1.523.754-2.648 2.359-2.644 1.478.005 2.288.84 2.345 2.474zm-1.169 22.793c2.197 2.949 2.419 8.811-.161 11.3-4.988 4.835-5.743 11.28-7.063 17.691a98.402 98.402 0 0 1-3.265 12.025c-1.159 3.365-3.397 5.569-7.067 5.481-2.267-.055-4.545.306-6.811.253-1.603-.033-2.378.328-2.378 2.301-.02 5.174-.385 10.36-.262 15.521.06 2.444-.887 3.232-2.772 3.376-1.099.087-2.207.022-3.89.022 0 4.078.059 7.816-.01 11.554-.023 1.303-.052 2.609-.081 3.924H3.743c-3.325-7.346-3.698-14.766-2.276-22.579.129-.769-.022-1.909-.476-2.435-1.399-1.589-1.037-3.145-.522-4.977 1.895-6.632 3.787-13.274 5.411-19.992.604-2.501.776-5.23.645-7.816-.352-7.411 1.341-14.435 3.094-21.451.815-3.268 2.64-5.931 5.088-8.046 1.835-1.59 3.78-3.046 5.464-4.811.544-.583.604-1.974.473-2.928-.062-.438-1.14-1.074-1.713-1.02-2.279.198-3.537-.832-4.414-3.101-.625-1.623-1.774-3.026-2.712-4.495a173.74 173.74 0 0 0-2.68-4.012c-5.301-7.738-4.293-15.772-.706-23.753 1.804-4.022 3.9-7.979 7.943-10.04C23.173 1.063 30.156-1.106 37.785.56c3.236.7 6.571.921 9.776 1.754 5.695 1.469 8.225 4.712 9.049 11.016.063.515.162 1.03.315 1.534 1.107 3.76-.223 7.147-1.442 10.502-.454 1.238-.03 2.115.089 3.222.253 2.423 2.258 2.477 3.166 3.815.494.745.705 2.126.423 2.991-.413 1.283-.472 1.986.686 2.773.513.352.864 1.36.896 2.095.111 2.279-.041 4.504-2.044 6.029-.405.316-.465 1.217-.597 1.874-.724 3.333-2.316 4.791-5.521 4.845-2.832.033-5.666-.131-8.497-.044-2.64.077-4.121 1.446-4.686 4.166-.271 1.337-.705 2.74.896 3.694.496.284.686 1.26.948 1.951 2.943 7.77 5.685 15.619 6.682 24.027.223 1.83 1.169 2.543 2.67 2.86 1.573.329 2.662-.163 3.388-1.764 1.652-3.629 3.486-7.169 5.008-10.863.624-1.525.543-3.365.968-5.01.623-2.421 1.32-4.833 2.176-7.157.635-1.732 1.512-3.376 2.43-4.953.503-.857 1.338-1.493 2.025-2.226.291.054.583.097.877.142-1.23-4.462-3.125-9.306-4.183-13.835-.726-3.397-.565-6.663 1.068-6.949 1.814-.317 2.762 5.405 2.581 6.698-.394 2.86-.122 5.491.432 8.199.314 1.536.534 3.092.886 4.615.122.538.486 1.436.758 1.447 2.751.109 3.426 2.784 4.725 4.539zm-9.18-24.007c-1.119.123-.847 6.589.936 6.282 1.16-.197.495-6.425-.936-6.282z"/></symbol><symbol id="cross"><path fill-rule="evenodd" d="M.346 17.652a1.198 1.198 0 0 0 1.697 0l6.954-6.96 6.956 6.96a1.196 1.196 0 0 0 1.697 0 1.203 1.203 0 0 0 0-1.699l-6.955-6.961 6.955-6.959a1.205 1.205 0 0 0 0-1.7 1.2 1.2 0 0 0-1.697 0L8.997 7.294 2.043.333a1.2 1.2 0 0 0-1.697 0 1.203 1.203 0 0 0 0 1.7l6.953 6.959-6.953 6.961a1.202 1.202 0 0 0 0 1.699z"/></symbol><symbol id="erase"><path fill-rule="evenodd" d="M45.996 37.998H21.997a7.989 7.989 0 0 1-6.638-3.535c-.105-.074-.212-.139-.314-.231-4.73-4.264-9.465-8.53-14.195-12.797-1.144-1.03-1.103-3.141 0-4.178 4.762-4.481 9.523-8.964 14.282-13.445.035-.033.073-.052.108-.083a7.987 7.987 0 0 1 6.757-3.73h23.999a8 8 0 0 1 8.001 8v22a8 8 0 0 1-8.001 7.999z"/></symbol><symbol id="flag"><path fill-rule="evenodd" d="M8.811 1.405c-2.506.901-2.956 2.18-2.5 3.641.459 1.459 3.944 12.693 4.317 13.826.372 1.131 1.329 1.553 2.397 1.061 1.07-.495 5.177-2.563 11.33.932 6.156 3.494 9.958 1.729 10.735 1.188.769-.54 1.129-1.708.744-2.932-.379-1.224-3.779-12.061-4.051-12.986-.273-.924-.924-1.277-2.198-.946-1.274.33-4.138 1.506-10.503-2.047C14.709.889 11.189.554 8.811 1.405zm-6.652.892a1.662 1.662 0 0 1 2.068 1.089l9.623 30.523a1.63 1.63 0 0 1-1.107 2.037c-.874.252-1.8-.224-2.062-1.088L1.054 4.333a1.626 1.626 0 0 1 1.105-2.036z"/></symbol><symbol id="globe" viewbox="0 0 58 58"><path d="M50.688 48.222C55.232 43.101 58 36.369 58 29c0-7.667-2.996-14.643-7.872-19.834v-.001c-.004-.006-.01-.008-.013-.013C45.036 3.753 37.92.297 30.005.026l-.001-.001-.565-.015C29.293.005 29.147 0 29 0s-.293.005-.439.01l-.563.015-.001.001c-7.915.271-15.031 3.727-20.11 9.126-.004.005-.01.007-.013.013l-.001.002C2.996 14.357 0 21.333 0 29c0 7.369 2.768 14.101 7.312 19.222.006.009.006.019.013.028.018.025.044.037.063.06 5.106 5.708 12.432 9.385 20.608 9.665l.001.001.563.015c.147.004.293.009.44.009s.293-.005.439-.01l.563-.015.001-.001c8.185-.281 15.519-3.965 20.625-9.685.013-.017.034-.022.046-.04.008-.008.008-.018.014-.027zM2.025 30h12.003a36.956 36.956 0 0 0 2.415 12.217 36.873 36.873 0 0 0-8.111 4.131A26.875 26.875 0 0 1 2.025 30zm6.853-18.977a36.783 36.783 0 0 0 7.9 3.882A36.927 36.927 0 0 0 14.028 28H2.025a26.882 26.882 0 0 1 6.853-16.977zM55.975 28H43.972a36.927 36.927 0 0 0-2.75-13.095 36.783 36.783 0 0 0 7.9-3.882A26.882 26.882 0 0 1 55.975 28zM28 14.963a34.958 34.958 0 0 1-8.471-1.283A34.988 34.988 0 0 1 28 2.644v12.319zm0 2V28H16.028a34.926 34.926 0 0 1 2.666-12.475A36.948 36.948 0 0 0 28 16.963zm2 0c3.179-.085 6.3-.566 9.307-1.438A34.926 34.926 0 0 1 41.973 28H30V16.963zm0-2V2.644a34.988 34.988 0 0 1 8.471 11.036A34.958 34.958 0 0 1 30 14.963zm10.409-1.891a36.93 36.93 0 0 0-7.888-10.835 26.922 26.922 0 0 1 15.183 7.318 34.782 34.782 0 0 1-7.295 3.517zm-22.818 0a34.75 34.75 0 0 1-7.294-3.517A26.92 26.92 0 0 1 25.48 2.237a36.915 36.915 0 0 0-7.889 10.835zM16.028 30H28v10.038a36.883 36.883 0 0 0-9.661 1.541A34.924 34.924 0 0 1 16.028 30zM28 42.038v13.318a34.97 34.97 0 0 1-8.884-11.917A34.867 34.867 0 0 1 28 42.038zm2 13.318V42.038c3.039.085 6.017.556 8.884 1.4A34.964 34.964 0 0 1 30 55.356zm0-15.318V30h11.972a34.91 34.91 0 0 1-2.312 11.58A36.828 36.828 0 0 0 30 40.038zM43.972 30h12.003a26.87 26.87 0 0 1-6.307 16.348 36.873 36.873 0 0 0-8.111-4.131A36.93 36.93 0 0 0 43.972 30zM9.691 47.846a34.85 34.85 0 0 1 7.517-3.781 36.9 36.9 0 0 0 8.271 11.698c-6.151-.805-11.656-3.685-15.788-7.917zm22.83 7.917a36.878 36.878 0 0 0 8.271-11.698 34.874 34.874 0 0 1 7.517 3.781c-4.132 4.232-9.637 7.112-15.788 7.917z"/></symbol><symbol id="Info"><path fill-rule="evenodd" d="M23.996 47.996c-13.248 0-24-10.751-24-24 0-13.247 10.752-23.999 24-23.999 13.247 0 24 10.752 24 23.999 0 13.249-10.753 24-24 24zm0-43.201c-10.585 0-19.202 8.618-19.202 19.201 0 10.585 8.617 19.201 19.202 19.201 10.583 0 19.198-8.616 19.198-19.201 0-10.583-8.615-19.201-19.198-19.201zm-3 15.201h6v16.001h-6V19.996zm0-8h6v6.002h-6v-6.002z"/></symbol><symbol id="man"><path fill-rule="evenodd" d="M115.357 99.531c-.453-1.987-.657-4.03-1.133-6.01-.941-3.922-2.943-7.362-6.628-9.134-4.612-2.218-8.477-5.54-12.984-7.851-1.906-.975-3.93-1.758-5.956-2.471-2.058-.725-3.927-1.694-5.263-3.411-2.466-3.165-5.866-4.6-9.691-5.283-.562-.102-.746-.295-.736-.84.024-1.508-.009-3.016.019-4.522.006-.288.101-.645.291-.848 2.448-2.641 3.454-5.886 3.922-9.323.136-.984.309-1.571 1.498-1.685 1.213-.115 2.067-.967 2.472-2.109.932-2.6 1.852-5.206 1.764-8.036-.099-3.182.932-6.189 1.563-9.256.764-3.705 1.38-7.421.566-11.201-.582-2.689-1.668-5.184-4.226-6.523-1.35-.707-1.978-1.557-2.443-2.936-1.385-4.096-4.684-6.119-8.689-7.137C64.738-.303 56.3-.35 51.326.948c-4.029 1.049-7.89 2.563-11.084 5.261-2.89 2.447-4.814 5.695-5.685 9.297-.611 2.529-.142 5.229.644 7.799.264.861.38 1.889.172 2.746-.652 2.68-.425 5.222.655 7.739.159.367.14.864.051 1.27-.73 3.339-.924 6.65.395 9.906.614 1.516 1.323 2.893 3.346 2.811.221-.01.588.388.658.656.212.752.373 1.529.424 2.307.22 3.272 1.549 6.06 3.769 8.442.475.509.662 1 .644 1.668-.039 1.317.038 2.639-.041 3.955-.024.427-.283.952-.611 1.228a37.947 37.947 0 0 1-3.479 2.63c-.527.346-1.224.488-1.866.618-2.131.428-4.037 1.194-5.576 2.821-1.715 1.816-3.999 2.779-6.337 3.53-2.96.948-5.404 2.619-7.464 4.873-.734.801-1.579 1.256-2.655 1.521-.786.193-1.492.761-2.196 1.219-1.207.79-2.378 1.631-3.575 2.436-.207.137-.458.217-.698.303-3.947 1.439-5.89 4.266-6.56 8.355-.756 4.636-1.976 9.196-2.968 13.795-.396 1.84-.722 22.974-1.074 24.822-.085.44-.153.882-.221 1.323h119.001c-1.213-5.152-2.459-29.585-3.638-34.748z"/></symbol><symbol id="mark" viewbox="0 0 45.701 45.7"><path d="M20.687 38.332a5.308 5.308 0 0 1-7.505 0L1.554 26.704A5.306 5.306 0 1 1 9.059 19.2l6.928 6.927a1.344 1.344 0 0 0 1.896 0L36.642 7.368a5.308 5.308 0 0 1 7.505 7.504l-23.46 23.46z"/></symbol><symbol id="space"><path fill-rule="evenodd" d="M-.001 8.999v-9h3.999v5h26v-5h4v9H-.001z"/></symbol><symbol id="userplus"><path fill-rule="evenodd" d="M43.991 44.784c0 4.804-4.341 5.216-5.337 5.216H14.986c-.996 0-5.337-.412-5.337-5.216 0-.946.246-1.72.635-2.393h-6.79c-.654 0-3.504-.269-3.504-3.403 0-4.285 7.179-3.545 7.179-7.962 0-4.097-4.623-3.731-4.623-12.272 0-6.137 4.182-8.975 8.54-8.975.056 0 .116.008.172.008.059 0 .116-.008.172-.008.846 0 1.684.11 2.487.327 1.431-6.885 6.924-10.11 12.64-10.11.089 0 .176.011.262.012.09-.001.176-.012.266-.012 6.642 0 13.008 4.349 13.008 13.763 0 13.097-7.04 12.534-7.04 18.814 0 6.776 10.938 5.639 10.938 12.211zM17.695 26.507c-1.168 1.516-2.348 2.449-2.348 4.519 0 2.526 2.346 3.366 4.357 4.423.541-.779.884-1.703.884-2.876 0-2.765-1.365-4.205-2.893-6.066z"/></symbol><symbol id="&#x441;ard"><path fill-rule="evenodd" opacity=".502" d="M268.197-.001H29.796C13.258-.001-.002 13.23-.002 29.732v163.534c0 16.501 13.26 29.732 29.798 29.732H268.197c16.541 0 29.801-13.231 29.801-29.732V29.732c0-16.502-13.26-29.733-29.801-29.733zm0 193.267H29.796v-29.735h238.401v29.735zm0-74.334H29.796v-89.2h238.401v89.2z"/></symbol></svg>