<svg xmlns="http://www.w3.org/2000/svg" width="44" height="50"><path fill-rule="evenodd" fill="#888" d="M43.991 44.784c0 4.804-4.341 5.216-5.337 5.216H14.986c-.996 0-5.337-.412-5.337-5.216 0-.946.246-1.72.635-2.393h-6.79c-.654 0-3.504-.269-3.504-3.403 0-4.285 7.179-3.545 7.179-7.962 0-4.097-4.623-3.731-4.623-12.272 0-6.137 4.182-8.975 8.54-8.975.056 0 .116.008.172.008.059 0 .116-.008.172-.008.846 0 1.684.11 2.487.327 1.431-6.885 6.924-10.11 12.64-10.11.089 0 .176.011.262.012.09-.001.176-.012.266-.012 6.642 0 13.008 4.349 13.008 13.763 0 13.097-7.04 12.534-7.04 18.814 0 6.776 10.938 5.639 10.938 12.211zM17.695 26.507c-1.168 1.516-2.348 2.449-2.348 4.519 0 2.526 2.346 3.366 4.357 4.423.541-.779.884-1.703.884-2.876 0-2.765-1.365-4.205-2.893-6.066z"/></svg>