<svg xmlns="http://www.w3.org/2000/svg" width="65" height="70"><path fill-rule="evenodd" fill="#51444F" d="M61.995 69.996h-9.998c-1.658 0-3-1.342-3-2.999v-5h-3v-2.001H18.995v2.001h-3.001v5a2.998 2.998 0 0 1-2.997 2.999h-10a3 3 0 0 1-3.001-2.999v-18a3 3 0 0 1 3.001-3h10a3 3 0 0 1 2.997 3v5h3.001v1.999h27.002v-1.999h3v-5a3 3 0 0 1 3-3h9.998a3 3 0 0 1 3 3v18a2.998 2.998 0 0 1-3 2.999zm-3.999-45.999h-9.999a3 3 0 0 1-3.002-3v-5h-2v-2.001H21.996v2.001h-2.001v5c0 1.658-1.341 3-3 3H6.997a3 3 0 0 1-3-3v-18a3 3 0 0 1 3-3h9.998a3 3 0 0 1 3 3v5h2.001v2h20.999v-2h2v-5a3 3 0 0 1 3.002-3h9.999a2.999 2.999 0 0 1 2.998 3v18c0 1.658-1.341 3-2.998 3z"/></svg>