<svg 
 xmlns="http://www.w3.org/2000/svg"
 xmlns:xlink="http://www.w3.org/1999/xlink"
 width="50px" height="50px">
<path fill-rule="evenodd"  fill="rgb(79, 79, 79)"
 d="M46.515,49.991 L3.480,49.991 C1.556,49.991 -0.007,48.432 -0.007,46.512 L-0.007,8.237 C-0.007,6.315 1.556,4.758 3.480,4.758 L5.963,4.758 C6.762,4.758 7.408,5.402 7.408,6.199 L7.408,7.994 L9.685,7.994 L9.685,3.607 C9.685,2.158 10.864,0.984 12.313,0.984 C13.768,0.984 14.947,2.158 14.947,3.607 L14.947,7.994 L17.222,7.994 L17.222,6.199 C17.222,5.402 17.871,4.758 18.669,4.758 L31.577,4.758 C32.376,4.758 33.021,5.402 33.021,6.199 L33.021,7.994 L35.299,7.994 L35.299,3.607 C35.299,2.158 36.478,0.984 37.931,0.984 C39.386,0.984 40.563,2.158 40.563,3.607 L40.563,7.994 L42.838,7.994 L42.838,6.199 C42.838,5.402 43.486,4.758 44.284,4.758 L46.515,4.758 C48.445,4.758 50.005,6.315 50.005,8.237 L50.005,46.512 C50.005,48.432 48.445,49.991 46.515,49.991 ZM45.335,18.481 C45.335,17.679 44.682,17.027 43.877,17.027 L6.050,17.027 C5.245,17.027 4.593,17.679 4.593,18.481 L4.593,43.932 C4.593,44.734 5.245,45.385 6.050,45.385 L43.877,45.385 C44.682,45.385 45.335,44.734 45.335,43.932 L45.335,18.481 ZM39.952,39.050 L36.869,39.050 C35.734,39.050 34.820,38.136 34.820,37.005 L34.820,33.931 C34.820,32.804 35.734,31.886 36.869,31.886 L39.952,31.886 C41.087,31.886 42.002,32.804 42.002,33.931 L42.002,37.005 C42.002,38.136 41.087,39.050 39.952,39.050 ZM39.950,30.106 L36.869,30.106 C35.734,30.106 34.820,29.192 34.820,28.064 L34.820,24.989 C34.820,23.860 35.734,22.944 36.869,22.944 L39.950,22.944 C41.087,22.944 42.002,23.860 42.002,24.989 L42.002,28.064 C42.002,29.192 41.087,30.106 39.950,30.106 ZM30.986,39.050 L27.904,39.050 C26.773,39.050 25.853,38.136 25.853,37.005 L25.853,33.931 C25.853,32.804 26.773,31.886 27.904,31.886 L30.986,31.886 C32.118,31.886 33.037,32.804 33.037,33.931 L33.037,37.005 C33.037,38.136 32.118,39.050 30.986,39.050 ZM30.986,30.106 L27.904,30.106 C26.773,30.106 25.853,29.192 25.853,28.064 L25.853,24.989 C25.853,23.860 26.773,22.944 27.904,22.944 L30.986,22.944 C32.118,22.944 33.037,23.860 33.037,24.989 L33.037,28.064 C33.037,29.192 32.118,30.106 30.986,30.106 ZM22.014,39.050 L18.929,39.050 C17.801,39.050 16.882,38.136 16.882,37.005 L16.882,33.931 C16.882,32.804 17.801,31.886 18.929,31.886 L22.014,31.886 C23.144,31.886 24.063,32.804 24.063,33.931 L24.063,37.005 C24.063,38.136 23.144,39.050 22.014,39.050 ZM22.014,30.106 L18.929,30.106 C17.801,30.106 16.882,29.192 16.882,28.064 L16.882,24.989 C16.882,23.860 17.801,22.944 18.929,22.944 L22.014,22.944 C23.144,22.944 24.063,23.860 24.063,24.989 L24.063,28.064 C24.063,29.192 23.144,30.106 22.014,30.106 ZM13.044,39.050 L9.963,39.050 C8.832,39.050 7.913,38.136 7.913,37.005 L7.913,33.931 C7.913,32.804 8.832,31.886 9.963,31.886 L13.044,31.886 C14.179,31.886 15.097,32.804 15.097,33.931 L15.097,37.005 C15.097,38.136 14.179,39.050 13.044,39.050 ZM13.015,30.106 L9.928,30.106 C8.799,30.106 7.881,29.192 7.881,28.064 L7.881,24.989 C7.881,23.860 8.799,22.944 9.928,22.944 L13.015,22.944 C14.142,22.944 15.062,23.860 15.062,24.989 L15.062,28.064 C15.062,29.192 14.142,30.106 13.015,30.106 Z"/>
</svg>