<svg xmlns="http://www.w3.org/2000/svg" width="50" height="49.031" viewBox="0 0 50 49.031">
  <metadata><?xpacket begin="﻿" id="W5M0MpCehiHzreSzNTczkc9d"?>
<x:xmpmeta xmlns:x="adobe:ns:meta/" x:xmptk="Adobe XMP Core 5.6-c138 79.159824, 2016/09/14-01:09:01        ">
   <rdf:RDF xmlns:rdf="http://www.w3.org/1999/02/22-rdf-syntax-ns#">
      <rdf:Description rdf:about=""/>
   </rdf:RDF>
</x:xmpmeta>
                                                                                                    
                                                                                                    
                                                                                                    
                                                                                                    
                                                                                                    
                                                                                                    
                                                                                                    
                                                                                                    
                                                                                                    
                                                                                                    
                                                                                                    
                                                                                                    
                                                                                                    
                                                                                                    
                                                                                                    
                                                                                                    
                                                                                                    
                                                                                                    
                                                                                                    
                                                                                                    
                           
<?xpacket end="w"?></metadata>
<defs>
    <style>
      .cls-1 {
        fill: #4f4f4f;
        fill-rule: evenodd;
      }
    </style>
  </defs>
  <path class="cls-1" d="M2789.31,961.531a2.619,2.619,0,0,1-2.62-2.623v-6.3a2.63,2.63,0,0,1,5.26,0v6.3A2.629,2.629,0,0,1,2789.31,961.531Zm25.62,0a2.627,2.627,0,0,1-2.63-2.623v-6.3a2.63,2.63,0,0,1,5.26,0v6.3A2.621,2.621,0,0,1,2814.93,961.531Zm4.91-2.94a5.08,5.08,0,0,1-4.08,5.09,4.911,4.911,0,0,1-5.74-4.827V955.2a1.437,1.437,0,0,0-1.44-1.441h-12.91a1.445,1.445,0,0,0-1.45,1.441v3.4a5.079,5.079,0,0,1-4.08,5.087,4.9,4.9,0,0,1-5.73-4.827V955.2a1.445,1.445,0,0,0-1.45-1.441h-2.48a3.489,3.489,0,0,0-3.49,3.479v38.275a3.49,3.49,0,0,0,3.49,3.479h43.04a3.49,3.49,0,0,0,3.49-3.479V957.237a3.489,3.489,0,0,0-3.49-3.479h-2.24a1.443,1.443,0,0,0-1.44,1.441v3.392Zm-36.79,35.794a1.461,1.461,0,0,1-1.46-1.453V967.481a1.462,1.462,0,0,1,1.46-1.454h37.83a1.453,1.453,0,0,1,1.45,1.454v25.451a1.452,1.452,0,0,1-1.45,1.453h-37.83Zm12.88-15.279a2.047,2.047,0,0,1-2.05-2.042v-3.075a2.049,2.049,0,0,1,2.05-2.045h3.08a2.049,2.049,0,0,1,2.05,2.045v3.075a2.047,2.047,0,0,1-2.05,2.042h-3.08Zm8.97,0a2.047,2.047,0,0,1-2.05-2.042v-3.075a2.049,2.049,0,0,1,2.05-2.045h3.09a2.049,2.049,0,0,1,2.05,2.045v3.075a2.047,2.047,0,0,1-2.05,2.042h-3.09Zm8.97,0a2.041,2.041,0,0,1-2.05-2.042v-3.075a2.043,2.043,0,0,1,2.05-2.045h3.08a2.043,2.043,0,0,1,2.05,2.045v3.075a2.041,2.041,0,0,1-2.05,2.042h-3.08Zm-26.91,8.944a2.048,2.048,0,0,1-2.05-2.045v-3.074a2.05,2.05,0,0,1,2.05-2.045h3.08a2.053,2.053,0,0,1,2.06,2.045v3.074a2.05,2.05,0,0,1-2.06,2.045h-3.08Zm8.97,0a2.048,2.048,0,0,1-2.05-2.045v-3.074a2.05,2.05,0,0,1,2.05-2.045h3.08a2.05,2.05,0,0,1,2.05,2.045v3.074a2.048,2.048,0,0,1-2.05,2.045h-3.08Zm8.97,0a2.048,2.048,0,0,1-2.05-2.045v-3.074a2.05,2.05,0,0,1,2.05-2.045h3.09a2.05,2.05,0,0,1,2.05,2.045v3.074a2.048,2.048,0,0,1-2.05,2.045h-3.09Zm8.97,0a2.042,2.042,0,0,1-2.05-2.045v-3.074a2.044,2.044,0,0,1,2.05-2.045h3.08a2.044,2.044,0,0,1,2.05,2.045v3.074a2.042,2.042,0,0,1-2.05,2.045h-3.08Zm-33.88-31.056h44v8h-44v-8Zm6.94,22.112a2.047,2.047,0,0,1-2.05-2.042v-3.075a2.049,2.049,0,0,1,2.05-2.045h3.09a2.047,2.047,0,0,1,2.04,2.045v3.075a2.045,2.045,0,0,1-2.04,2.042h-3.09Z" transform="translate(-2777 -949.969)"/>
</svg>
