<svg 
 xmlns="http://www.w3.org/2000/svg"
 xmlns:xlink="http://www.w3.org/1999/xlink"
 width="52px" height="106px">
<path fill-rule="evenodd"  fill="rgb(61, 159, 68)"
 d="M29.546,10.997 C30.975,23.388 34.910,49.911 37.995,52.996 C41.832,56.834 47.996,53.439 47.996,57.997 C47.996,61.883 37.828,86.740 34.825,93.998 L46.996,93.998 C48.101,93.998 48.995,94.892 48.995,95.997 L48.995,105.997 L-0.003,105.997 L-0.003,95.997 C-0.003,94.892 0.892,93.998 1.997,93.998 L15.165,93.998 C12.163,86.740 1.997,61.883 1.997,57.997 C1.997,53.439 8.160,56.834 11.995,52.996 C15.082,49.911 19.017,23.388 20.446,10.997 L-0.003,10.997 L-0.003,5.997 C-0.003,4.892 0.892,3.997 1.997,3.997 L21.063,3.997 C21.375,0.956 22.996,0.997 22.996,0.997 L24.996,0.997 L26.996,0.997 C26.996,0.997 28.616,0.956 28.928,3.997 L49.996,3.997 C51.100,3.997 51.996,4.892 51.996,5.997 L51.996,10.997 L29.546,10.997 Z"/>
</svg>