<svg 
 xmlns="http://www.w3.org/2000/svg"
 xmlns:xlink="http://www.w3.org/1999/xlink"
 width="41px" height="70px">
<path fill-rule="evenodd"  fill="rgb(136, 136, 136)"
 d="M25.329,5.044 L27.056,23.348 L27.703,23.348 L28.843,23.348 C31.035,23.348 34.132,38.329 34.132,40.518 L34.132,42.737 C34.132,44.927 33.679,46.700 31.489,46.700 L27.314,48.019 L27.314,50.822 L27.314,57.689 L27.314,59.009 L25.991,59.009 L14.997,59.009 L13.674,59.009 L13.674,57.689 L13.674,50.822 L13.674,48.019 L9.502,46.700 C7.309,46.700 6.855,44.927 6.855,42.737 L6.855,40.518 C6.855,38.329 9.953,23.348 12.145,23.348 L13.932,23.348 L15.658,5.044 C15.658,1.251 16.727,-0.003 20.495,-0.003 C24.260,-0.003 25.329,1.251 25.329,5.044 ZM15.204,42.263 L25.124,42.263 L25.124,36.595 C23.747,37.089 21.996,37.386 20.092,37.386 C18.251,37.386 16.561,37.106 15.204,36.641 L15.204,42.263 ZM9.914,5.942 L9.914,2.795 C9.914,2.564 13.147,2.207 14.543,2.053 L13.881,5.942 L9.914,5.942 ZM12.228,8.583 L12.228,14.176 L10.574,14.176 C10.391,14.176 10.244,14.324 10.244,14.505 L10.244,15.208 C10.244,15.390 10.391,15.538 10.574,15.538 L12.228,15.538 L12.228,21.130 C12.228,21.860 11.638,22.450 10.905,22.450 L4.624,22.450 C3.892,22.450 3.301,21.860 3.301,21.130 L3.301,8.583 C3.301,7.855 3.892,7.262 4.624,7.262 L10.905,7.262 C11.638,7.262 12.228,7.855 12.228,8.583 ZM11.303,50.187 L11.303,55.780 L9.120,55.780 C8.937,55.780 8.789,55.929 8.789,56.110 L8.789,56.809 C8.789,56.992 8.937,57.140 9.120,57.140 L11.303,57.140 L11.303,58.700 L7.268,59.433 C4.346,59.433 1.979,60.476 1.979,63.395 C1.979,63.620 1.997,63.838 2.024,64.054 L1.317,64.054 C0.587,64.054 -0.007,63.463 -0.007,62.735 L-0.007,50.187 C-0.007,49.458 0.587,48.865 1.317,48.865 L9.979,48.865 C10.710,48.865 11.303,49.458 11.303,50.187 ZM12.062,60.382 L28.926,60.382 C29.655,60.382 36.861,61.635 36.861,62.366 L36.861,69.997 L4.127,69.997 L4.127,62.366 C4.127,61.635 11.333,60.382 12.062,60.382 ZM33.720,59.433 L29.684,58.700 L29.684,57.140 L31.868,57.140 C32.050,57.140 32.199,56.992 32.199,56.809 L32.199,56.110 C32.199,55.929 32.050,55.780 31.868,55.780 L29.684,55.780 L29.684,50.187 C29.684,49.458 30.278,48.865 31.009,48.865 L39.670,48.865 C40.403,48.865 40.995,49.458 40.995,50.187 L40.995,62.735 C40.995,63.463 40.403,64.054 39.670,64.054 L38.964,64.054 C38.992,63.838 39.009,63.620 39.009,63.395 C39.009,60.476 36.642,59.433 33.720,59.433 ZM28.762,21.130 L28.762,15.541 L30.415,15.541 C30.596,15.541 30.745,15.392 30.745,15.212 L30.745,14.502 C30.745,14.320 30.596,14.172 30.415,14.172 L28.762,14.172 L28.762,8.583 C28.762,7.855 29.352,7.262 30.083,7.262 L36.366,7.262 C37.094,7.262 37.687,7.855 37.687,8.583 L37.687,21.130 C37.687,21.860 37.094,22.450 36.366,22.450 L30.083,22.450 C29.352,22.450 28.762,21.860 28.762,21.130 ZM31.075,2.795 L31.075,5.942 L27.107,5.942 L26.446,2.053 C27.840,2.207 31.075,2.564 31.075,2.795 Z"/>
</svg>