<svg xmlns="http://www.w3.org/2000/svg" width="117" height="146" viewBox="0 0 117 146">
  <metadata><?xpacket begin="﻿" id="W5M0MpCehiHzreSzNTczkc9d"?>
<x:xmpmeta xmlns:x="adobe:ns:meta/" x:xmptk="Adobe XMP Core 5.6-c138 79.159824, 2016/09/14-01:09:01        ">
   <rdf:RDF xmlns:rdf="http://www.w3.org/1999/02/22-rdf-syntax-ns#">
      <rdf:Description rdf:about=""/>
   </rdf:RDF>
</x:xmpmeta>
                                                                                                    
                                                                                                    
                                                                                                    
                                                                                                    
                                                                                                    
                                                                                                    
                                                                                                    
                                                                                                    
                                                                                                    
                                                                                                    
                                                                                                    
                                                                                                    
                                                                                                    
                                                                                                    
                                                                                                    
                                                                                                    
                                                                                                    
                                                                                                    
                                                                                                    
                                                                                                    
                           
<?xpacket end="w"?></metadata>
<defs>
    <style>
      .cls-1 {
        fill: #888;
        fill-rule: evenodd;
      }
    </style>
  </defs>
  <path class="cls-1" d="M5412.73,1410.55c-1.3-1.76-1.97-4.43-4.72-4.54a2.355,2.355,0,0,1-.76-1.45c-0.35-1.52-.57-3.08-0.89-4.61a23.919,23.919,0,0,1-.43-8.2c0.18-1.3-.76-7.02-2.58-6.7-1.63.28-1.79,3.55-1.07,6.95,1.06,4.53,2.96,9.37,4.19,13.83-0.3-.04-0.59-0.09-0.88-0.14a13.781,13.781,0,0,0-2.03,2.23,32.454,32.454,0,0,0-2.43,4.95c-0.85,2.32-1.55,4.74-2.17,7.16-0.43,1.64-.35,3.48-0.97,5.01-1.52,3.69-3.36,7.23-5.01,10.86a2.7,2.7,0,0,1-3.39,1.76,2.96,2.96,0,0,1-2.67-2.86c-0.99-8.4-3.74-16.25-6.68-24.02-0.26-.69-0.45-1.67-0.95-1.95-1.6-.96-1.16-2.36-0.89-3.7,0.56-2.72,2.04-4.09,4.68-4.16,2.84-.09,5.67.07,8.5,0.04,3.21-.05,4.8-1.51,5.52-4.85a3.542,3.542,0,0,1,.6-1.87c2-1.52,2.15-3.75,2.04-6.03a3.016,3.016,0,0,0-.89-2.09c-1.16-.79-1.1-1.49-0.69-2.78a4.053,4.053,0,0,0-.42-2.99c-0.91-1.34-2.91-1.39-3.17-3.81-0.12-1.11-.54-1.99-0.09-3.22,1.22-3.36,2.55-6.75,1.44-10.51a8.83,8.83,0,0,1-.31-1.53c-0.82-6.3-3.35-9.55-9.05-11.02-3.2-.83-6.54-1.05-9.77-1.75-7.63-1.67-14.62.5-21.43,3.98-4.04,2.06-6.14,6.02-7.94,10.04-3.59,7.98-4.6,16.01.7,23.75,0.91,1.33,1.81,2.66,2.68,4.01a26.941,26.941,0,0,1,2.72,4.5c0.87,2.27,2.13,3.3,4.41,3.1a2.057,2.057,0,0,1,1.71,1.02,4.142,4.142,0,0,1-.47,2.93c-1.68,1.76-3.63,3.22-5.46,4.81a15.46,15.46,0,0,0-5.09,8.04c-1.75,7.02-3.45,14.05-3.1,21.46a27.649,27.649,0,0,1-.64,7.81c-1.62,6.72-3.52,13.36-5.41,19.99-0.52,1.84-.88,3.39.52,4.98a3.41,3.41,0,0,1,.48,2.44c-1.43,7.81-1.05,15.23,2.27,22.58h36.23c0.03-1.32.06-2.63,0.08-3.93,0.07-3.74.01-7.47,0.01-11.55,1.69,0,2.79.06,3.89-.03,1.89-.14,2.84-0.93,2.78-3.37-0.13-5.16.24-10.35,0.26-15.52,0-1.98.77-2.34,2.38-2.3,2.26,0.05,4.54-.31,6.81-0.26,3.67,0.09,5.9-2.11,7.06-5.48a98.23,98.23,0,0,0,3.27-12.02c1.32-6.41,2.07-12.86,7.06-17.69C5415.15,1419.36,5414.93,1413.5,5412.73,1410.55Zm-8.24-17.73c-1.78.31-2.06-6.16-.94-6.28C5404.98,1386.4,5405.65,1392.62,5404.49,1392.82Zm44.57-33.16c-3.82.01-6.7,3.24-6.68,7.49,0.03,4.23,2.93,7.33,6.84,7.29A7.411,7.411,0,0,0,5449.06,1359.66Zm-15.73-1.09c-3.27.05-5.67,2.75-5.65,6.35,0.02,3.71,2.49,6.43,5.82,6.39a6.156,6.156,0,0,0,5.85-6.46A6.093,6.093,0,0,0,5433.33,1358.57Zm-8.09,13.28a5.054,5.054,0,0,0-4.96,5.15,5,5,0,0,0,4.67,5.21,4.87,4.87,0,0,0,5.02-5.02A4.99,4.99,0,0,0,5425.24,1371.85Zm-2.77,12.63a3.3,3.3,0,0,0-3.37,3.44,3.52,3.52,0,0,0,3.18,3.51,3.276,3.276,0,0,0,3.18-3.41A3.186,3.186,0,0,0,5422.47,1384.48Zm-9.07-7.51a2.543,2.543,0,0,0-2.66,2.78c-0.03,1.73.85,2.8,2.54,2.83,1.67,0.03,2.51-.94,2.67-2.75C5415.86,1378.1,5414.97,1377,5413.4,1376.97Zm-1.85,13.44c1.4,0.27,2.39-.88,2.35-2.66-0.06-1.63-.87-2.47-2.34-2.47a2.171,2.171,0,0,0-2.36,2.64A3.733,3.733,0,0,0,5411.55,1390.41Z" transform="translate(-5339 -1348)"/>
</svg>
