<svg 
 xmlns="http://www.w3.org/2000/svg"
 xmlns:xlink="http://www.w3.org/1999/xlink"
 width="117px" height="146px">
<path fill-rule="evenodd"  fill="rgb(136, 136, 136)"
 d="M110.220,26.438 C106.313,26.479 103.406,23.378 103.382,19.145 C103.358,14.897 106.236,11.671 110.061,11.656 C113.944,11.641 117.087,15.054 117.001,19.197 C116.920,23.224 113.945,26.399 110.220,26.438 ZM94.502,23.315 C91.171,23.346 88.701,20.633 88.681,16.921 C88.660,13.318 91.061,10.621 94.333,10.571 C97.655,10.523 100.334,13.319 100.350,16.854 C100.369,20.416 97.773,23.284 94.502,23.315 ZM90.973,29.194 C90.896,32.162 88.763,34.293 85.955,34.207 C83.318,34.127 81.246,31.820 81.279,29.003 C81.311,26.128 83.535,23.814 86.235,23.850 C88.938,23.886 91.046,26.265 90.973,29.194 ZM86.463,40.022 C86.416,41.970 85.014,43.470 83.280,43.432 C81.599,43.393 80.100,41.739 80.096,39.919 C80.091,37.945 81.602,36.409 83.473,36.485 C85.281,36.557 86.513,38.015 86.463,40.022 ZM74.277,34.585 C72.591,34.552 71.707,33.476 71.740,31.748 C71.772,29.997 72.834,28.940 74.402,28.971 C75.973,29.004 76.859,30.102 76.949,31.832 C76.789,33.643 75.946,34.614 74.277,34.585 ZM74.902,39.754 C74.939,41.526 73.950,42.679 72.549,42.408 C71.624,42.232 70.395,40.928 70.198,39.924 C69.904,38.401 70.952,37.276 72.557,37.280 C74.035,37.285 74.845,38.120 74.902,39.754 ZM73.733,62.547 C75.930,65.496 76.152,71.358 73.572,73.847 C68.584,78.682 67.829,85.127 66.509,91.538 C65.671,95.616 64.583,99.649 63.244,103.563 C62.085,106.928 59.847,109.132 56.177,109.044 C53.910,108.989 51.632,109.350 49.366,109.297 C47.763,109.264 46.988,109.625 46.988,111.598 C46.968,116.772 46.603,121.958 46.726,127.119 C46.786,129.563 45.839,130.351 43.954,130.495 C42.855,130.582 41.747,130.517 40.064,130.517 C40.064,134.595 40.123,138.333 40.054,142.071 C40.031,143.374 40.002,144.680 39.973,145.995 L3.743,145.995 C0.418,138.649 0.045,131.229 1.467,123.416 C1.596,122.647 1.445,121.507 0.991,120.981 C-0.408,119.392 -0.046,117.836 0.469,116.004 C2.364,109.372 4.256,102.730 5.880,96.012 C6.484,93.511 6.656,90.782 6.525,88.196 C6.173,80.785 7.866,73.761 9.619,66.745 C10.434,63.477 12.259,60.814 14.707,58.699 C16.542,57.109 18.487,55.653 20.171,53.888 C20.715,53.305 20.775,51.914 20.644,50.960 C20.582,50.522 19.504,49.886 18.931,49.940 C16.652,50.138 15.394,49.108 14.517,46.839 C13.892,45.216 12.743,43.813 11.805,42.344 C10.929,40.985 10.032,39.657 9.125,38.332 C3.824,30.594 4.832,22.560 8.419,14.579 C10.223,10.557 12.319,6.600 16.362,4.539 C23.173,1.063 30.156,-1.106 37.785,0.560 C41.021,1.260 44.356,1.481 47.561,2.314 C53.256,3.783 55.786,7.026 56.610,13.330 C56.673,13.845 56.772,14.360 56.925,14.864 C58.032,18.624 56.702,22.011 55.483,25.366 C55.029,26.604 55.453,27.481 55.572,28.588 C55.825,31.011 57.830,31.065 58.738,32.403 C59.232,33.148 59.443,34.529 59.161,35.394 C58.748,36.677 58.689,37.380 59.847,38.167 C60.360,38.519 60.711,39.527 60.743,40.262 C60.854,42.541 60.702,44.766 58.699,46.291 C58.294,46.607 58.234,47.508 58.102,48.165 C57.378,51.498 55.786,52.956 52.581,53.010 C49.749,53.043 46.915,52.879 44.084,52.966 C41.444,53.043 39.963,54.412 39.398,57.132 C39.127,58.469 38.693,59.872 40.294,60.826 C40.790,61.110 40.980,62.086 41.242,62.777 C44.185,70.547 46.927,78.396 47.924,86.804 C48.147,88.634 49.093,89.347 50.594,89.664 C52.167,89.993 53.256,89.501 53.982,87.900 C55.634,84.271 57.468,80.731 58.990,77.037 C59.614,75.512 59.533,73.672 59.958,72.027 C60.581,69.606 61.278,67.194 62.134,64.870 C62.769,63.138 63.646,61.494 64.564,59.917 C65.067,59.060 65.902,58.424 66.589,57.691 C66.880,57.745 67.172,57.788 67.466,57.833 C66.236,53.371 64.341,48.527 63.283,43.998 C62.557,40.601 62.718,37.335 64.351,37.049 C66.165,36.732 67.113,42.454 66.932,43.747 C66.538,46.607 66.810,49.238 67.364,51.946 C67.678,53.482 67.898,55.038 68.250,56.561 C68.372,57.099 68.736,57.997 69.008,58.008 C71.759,58.117 72.434,60.792 73.733,62.547 ZM64.553,38.540 C63.434,38.663 63.706,45.129 65.489,44.822 C66.649,44.625 65.984,38.397 64.553,38.540 Z"/>
</svg>