<svg 
 xmlns="http://www.w3.org/2000/svg"
 xmlns:xlink="http://www.w3.org/1999/xlink"
 width="19px" height="18px">
<path fill-rule="evenodd"  fill="rgb(188, 191, 195)"
 d="M0.346,17.652 C0.580,17.887 0.886,18.004 1.194,18.004 C1.500,18.004 1.808,17.887 2.043,17.652 L8.997,10.692 L15.953,17.652 C16.186,17.887 16.494,18.004 16.801,18.004 C17.108,18.004 17.415,17.887 17.650,17.652 C18.118,17.184 18.118,16.421 17.650,15.953 L10.695,8.992 L17.650,2.033 C18.118,1.564 18.118,0.803 17.650,0.333 C17.181,-0.136 16.421,-0.136 15.953,0.333 L8.997,7.294 L2.043,0.333 C1.574,-0.136 0.815,-0.136 0.346,0.333 C-0.123,0.803 -0.123,1.564 0.346,2.033 L7.299,8.992 L0.346,15.953 C-0.123,16.421 -0.123,17.184 0.346,17.652 Z"/>
</svg>