<svg 
 xmlns="http://www.w3.org/2000/svg"
 xmlns:xlink="http://www.w3.org/1999/xlink"
 width="54px" height="38px">
<path fill-rule="evenodd"  fill="rgb(136, 136, 136)"
 d="M45.996,37.998 L21.993,37.998 C19.228,37.998 16.791,36.594 15.355,34.461 C15.250,34.387 15.144,34.323 15.044,34.232 C10.313,29.968 5.580,25.701 0.850,21.436 C-0.296,20.405 -0.251,18.293 0.850,17.257 C5.609,12.777 10.372,8.292 15.131,3.812 C15.164,3.780 15.201,3.761 15.236,3.731 C16.653,1.490 19.147,-0.001 21.993,-0.001 L45.996,-0.001 C50.413,-0.001 53.995,3.579 53.995,7.998 L53.995,29.998 C53.995,34.416 50.413,37.998 45.996,37.998 Z"/>
</svg>