<svg 
 xmlns="http://www.w3.org/2000/svg"
 xmlns:xlink="http://www.w3.org/1999/xlink"
 width="54px" height="38px">
<path fill-rule="evenodd"  fill="rgb(188, 191, 195)"
 d="M45.996,37.998 L21.997,37.998 C19.233,37.998 16.795,36.596 15.359,34.463 C15.254,34.389 15.147,34.324 15.045,34.232 C10.315,29.968 5.580,25.702 0.850,21.435 C-0.294,20.405 -0.253,18.294 0.850,17.257 C5.612,12.776 10.373,8.293 15.132,3.812 C15.167,3.779 15.205,3.760 15.240,3.729 C16.658,1.490 19.151,-0.001 21.997,-0.001 L45.996,-0.001 C50.415,-0.001 53.997,3.580 53.997,7.999 L53.997,29.999 C53.997,34.418 50.415,37.998 45.996,37.998 Z"/>
</svg>