<svg 
 xmlns="http://www.w3.org/2000/svg"
 xmlns:xlink="http://www.w3.org/1999/xlink"
 width="36px" height="36px">
<path fill-rule="evenodd"  fill="rgb(136, 136, 136)"
 d="M8.811,1.405 C6.305,2.306 5.855,3.585 6.311,5.046 C6.770,6.505 10.255,17.739 10.628,18.872 C11.000,20.003 11.957,20.425 13.025,19.933 C14.095,19.438 18.202,17.370 24.355,20.865 C30.511,24.359 34.313,22.594 35.090,22.053 C35.859,21.513 36.219,20.345 35.834,19.121 C35.455,17.897 32.055,7.060 31.783,6.135 C31.510,5.211 30.859,4.858 29.585,5.189 C28.311,5.519 25.447,6.695 19.082,3.142 C14.709,0.889 11.189,0.554 8.811,1.405 ZM2.159,2.297 C3.034,2.034 3.960,2.522 4.227,3.386 L13.850,33.909 C14.114,34.773 13.622,35.684 12.743,35.946 C11.869,36.198 10.943,35.722 10.681,34.858 L1.054,4.333 C0.785,3.471 1.284,2.557 2.159,2.297 Z"/>
</svg>