<svg xmlns="http://www.w3.org/2000/svg" width="35.03" height="35.031" viewBox="0 0 35.03 35.031">
  <metadata><?xpacket begin="﻿" id="W5M0MpCehiHzreSzNTczkc9d"?>
<x:xmpmeta xmlns:x="adobe:ns:meta/" x:xmptk="Adobe XMP Core 5.6-c138 79.159824, 2016/09/14-01:09:01        ">
   <rdf:RDF xmlns:rdf="http://www.w3.org/1999/02/22-rdf-syntax-ns#">
      <rdf:Description rdf:about=""/>
   </rdf:RDF>
</x:xmpmeta>
                                                                                                    
                                                                                                    
                                                                                                    
                                                                                                    
                                                                                                    
                                                                                                    
                                                                                                    
                                                                                                    
                                                                                                    
                                                                                                    
                                                                                                    
                                                                                                    
                                                                                                    
                                                                                                    
                                                                                                    
                                                                                                    
                                                                                                    
                                                                                                    
                                                                                                    
                                                                                                    
                           
<?xpacket end="w"?></metadata>
<defs>
    <style>
      .cls-1 {
        fill: #888;
        fill-rule: evenodd;
      }
    </style>
  </defs>
  <path id="flag" class="cls-1" d="M4326.81,959.405c-2.5.9-2.96,2.18-2.5,3.641s3.95,12.693,4.32,13.826a1.623,1.623,0,0,0,2.39,1.061c1.08-.5,5.18-2.563,11.34.932s9.95,1.729,10.73,1.188a2.584,2.584,0,0,0,.74-2.932c-0.37-1.224-3.78-12.061-4.05-12.986s-0.92-1.277-2.2-.946-4.13,1.506-10.5-2.047C4332.71,958.889,4329.19,958.554,4326.81,959.405Zm-6.65.892a1.668,1.668,0,0,1,2.07,1.089l9.62,30.523a1.633,1.633,0,0,1-1.11,2.037,1.661,1.661,0,0,1-2.06-1.088l-9.63-30.525A1.632,1.632,0,0,1,4320.16,960.3Z" transform="translate(-4318.97 -958.969)"/>
</svg>
