<svg 
 xmlns="http://www.w3.org/2000/svg"
 xmlns:xlink="http://www.w3.org/1999/xlink"
 width="48px" height="48px">
<path fill-rule="evenodd"  fill="rgb(232, 232, 232)"
 d="M23.996,47.996 C10.748,47.996 -0.004,37.245 -0.004,23.996 C-0.004,10.749 10.748,-0.003 23.996,-0.003 C37.243,-0.003 47.996,10.749 47.996,23.996 C47.996,37.245 37.243,47.996 23.996,47.996 ZM23.996,4.795 C13.411,4.795 4.794,13.413 4.794,23.996 C4.794,34.581 13.411,43.197 23.996,43.197 C34.579,43.197 43.194,34.581 43.194,23.996 C43.194,13.413 34.579,4.795 23.996,4.795 ZM20.996,19.996 L26.996,19.996 L26.996,35.997 L20.996,35.997 L20.996,19.996 ZM20.996,11.996 L26.996,11.996 L26.996,17.998 L20.996,17.998 L20.996,11.996 Z"/>
</svg>