<svg 
 xmlns="http://www.w3.org/2000/svg"
 xmlns:xlink="http://www.w3.org/1999/xlink"
 width="119px" height="135px">
<path fill-rule="evenodd"  fill="rgb(136, 136, 136)"
 d="M115.357,99.531 C114.904,97.544 114.700,95.501 114.224,93.521 C113.283,89.599 111.281,86.159 107.596,84.387 C102.984,82.169 99.119,78.847 94.612,76.536 C92.706,75.561 90.682,74.778 88.656,74.065 C86.598,73.340 84.729,72.371 83.393,70.654 C80.927,67.489 77.527,66.054 73.702,65.371 C73.140,65.269 72.956,65.076 72.966,64.531 C72.990,63.023 72.957,61.515 72.985,60.009 C72.991,59.721 73.086,59.364 73.276,59.161 C75.724,56.520 76.730,53.275 77.198,49.838 C77.334,48.854 77.507,48.267 78.696,48.153 C79.909,48.038 80.763,47.186 81.168,46.044 C82.100,43.444 83.020,40.838 82.932,38.008 C82.833,34.826 83.864,31.819 84.495,28.752 C85.259,25.047 85.875,21.331 85.061,17.551 C84.479,14.862 83.393,12.367 80.835,11.028 C79.485,10.321 78.857,9.471 78.392,8.092 C77.007,3.996 73.708,1.973 69.703,0.955 C64.738,-0.303 56.300,-0.350 51.326,0.948 C47.297,1.997 43.436,3.511 40.242,6.209 C37.352,8.656 35.428,11.904 34.557,15.506 C33.946,18.035 34.415,20.735 35.201,23.305 C35.465,24.166 35.581,25.194 35.373,26.051 C34.721,28.731 34.948,31.273 36.028,33.790 C36.187,34.157 36.168,34.654 36.079,35.060 C35.349,38.399 35.155,41.710 36.474,44.966 C37.088,46.482 37.797,47.859 39.820,47.777 C40.041,47.767 40.408,48.165 40.478,48.433 C40.690,49.185 40.851,49.962 40.902,50.740 C41.122,54.012 42.451,56.800 44.671,59.182 C45.146,59.691 45.333,60.182 45.315,60.850 C45.276,62.167 45.353,63.489 45.274,64.805 C45.250,65.232 44.991,65.757 44.663,66.033 C43.553,66.966 42.398,67.861 41.184,68.663 C40.657,69.009 39.960,69.151 39.318,69.281 C37.187,69.709 35.281,70.475 33.742,72.102 C32.027,73.918 29.743,74.881 27.405,75.632 C24.445,76.580 22.001,78.251 19.941,80.505 C19.207,81.306 18.362,81.761 17.286,82.026 C16.500,82.219 15.794,82.787 15.090,83.245 C13.883,84.035 12.712,84.876 11.515,85.681 C11.308,85.818 11.057,85.898 10.817,85.984 C6.870,87.423 4.927,90.250 4.257,94.339 C3.501,98.975 2.281,103.535 1.289,108.134 C0.893,109.974 0.567,131.108 0.215,132.956 C0.130,133.396 0.062,133.838 -0.006,134.279 L118.995,134.279 C117.782,129.127 116.536,104.694 115.357,99.531 Z"/>
</svg>