<svg xmlns="http://www.w3.org/2000/svg" width="44" height="50" viewBox="0 0 44 50">
  <metadata><?xpacket begin="﻿" id="W5M0MpCehiHzreSzNTczkc9d"?>
<x:xmpmeta xmlns:x="adobe:ns:meta/" x:xmptk="Adobe XMP Core 5.6-c138 79.159824, 2016/09/14-01:09:01        ">
   <rdf:RDF xmlns:rdf="http://www.w3.org/1999/02/22-rdf-syntax-ns#">
      <rdf:Description rdf:about=""/>
   </rdf:RDF>
</x:xmpmeta>
                                                                                                    
                                                                                                    
                                                                                                    
                                                                                                    
                                                                                                    
                                                                                                    
                                                                                                    
                                                                                                    
                                                                                                    
                                                                                                    
                                                                                                    
                                                                                                    
                                                                                                    
                                                                                                    
                                                                                                    
                                                                                                    
                                                                                                    
                                                                                                    
                                                                                                    
                                                                                                    
                           
<?xpacket end="w"?></metadata>
<defs>
    <style>
      .cls-1 {
        fill: #888;
        fill-rule: evenodd;
      }
    </style>
  </defs>
  <path id="userplus" class="cls-1" d="M3207.99,992.784c0,4.8-4.34,5.216-5.34,5.216h-23.66c-1,0-5.34-.412-5.34-5.216,0-6.572,10.94-5.435,10.94-12.211,0-6.28-7.04-5.717-7.04-18.814,0-9.414,6.36-13.763,13.01-13.763,0.09,0,.17.011,0.26,0.012s0.18-.012.26-0.012c6.65,0,13.01,4.349,13.01,13.763,0,13.1-7.04,12.534-7.04,18.814C3197.05,987.349,3207.99,986.212,3207.99,992.784Zm-21.46-5.8a3.309,3.309,0,0,1-3.51,3.4h-15.53a3.306,3.306,0,0,1-3.5-3.4c0-4.285,7.18-3.545,7.18-7.962,0-4.1-4.62-3.731-4.62-12.272,0-6.137,4.18-8.975,8.54-8.975,0.05,0,.11.008,0.17,0.008s0.11-.008.17-0.008c4.36,0,8.54,2.838,8.54,8.975,0,8.541-4.62,8.175-4.62,12.272C3179.35,983.443,3186.53,982.7,3186.53,986.988Z" transform="translate(-3164 -948)"/>
</svg>
