<svg 
 xmlns="http://www.w3.org/2000/svg"
 xmlns:xlink="http://www.w3.org/1999/xlink"
 width="65px" height="70px">
<path fill-rule="evenodd"  fill="rgb(81, 68, 79)"
 d="M61.995,69.996 L51.997,69.996 C50.339,69.996 48.997,68.654 48.997,66.997 L48.997,61.997 L45.997,61.997 L45.997,59.996 L18.995,59.996 L18.995,61.997 L15.994,61.997 L15.994,66.997 C15.994,68.654 14.651,69.996 12.997,69.996 L2.997,69.996 C1.339,69.996 -0.004,68.654 -0.004,66.997 L-0.004,48.997 C-0.004,47.341 1.339,45.997 2.997,45.997 L12.997,45.997 C14.651,45.997 15.994,47.341 15.994,48.997 L15.994,53.997 L18.995,53.997 L18.995,55.996 L45.997,55.996 L45.997,53.997 L48.997,53.997 L48.997,48.997 C48.997,47.341 50.339,45.997 51.997,45.997 L61.995,45.997 C63.653,45.997 64.995,47.341 64.995,48.997 L64.995,66.997 C64.995,68.654 63.653,69.996 61.995,69.996 ZM57.996,23.997 L47.997,23.997 C46.338,23.997 44.995,22.655 44.995,20.997 L44.995,15.997 L42.995,15.997 L42.995,13.996 L21.996,13.996 L21.996,15.997 L19.995,15.997 L19.995,20.997 C19.995,22.655 18.654,23.997 16.995,23.997 L6.997,23.997 C5.340,23.997 3.997,22.655 3.997,20.997 L3.997,2.997 C3.997,1.341 5.340,-0.003 6.997,-0.003 L16.995,-0.003 C18.654,-0.003 19.995,1.341 19.995,2.997 L19.995,7.997 L21.996,7.997 L21.996,9.997 L42.995,9.997 L42.995,7.997 L44.995,7.997 L44.995,2.997 C44.995,1.341 46.338,-0.003 47.997,-0.003 L57.996,-0.003 C59.653,-0.003 60.994,1.341 60.994,2.997 L60.994,20.997 C60.994,22.655 59.653,23.997 57.996,23.997 Z"/>
</svg>