<svg 
 xmlns="http://www.w3.org/2000/svg"
 xmlns:xlink="http://www.w3.org/1999/xlink"
 width="298px" height="223px">
<path fill-rule="evenodd"  opacity="0.502" fill="rgb(188, 190, 194)"
 d="M268.197,-0.001 L29.796,-0.001 C13.258,-0.001 -0.002,13.230 -0.002,29.732 L-0.002,193.266 C-0.002,209.767 13.258,222.998 29.796,222.998 L89.397,222.998 L208.597,222.998 L268.197,222.998 C284.738,222.998 297.998,209.767 297.998,193.266 L297.998,29.732 C297.998,13.230 284.738,-0.001 268.197,-0.001 ZM268.197,193.266 L29.796,193.266 L29.796,163.531 L268.197,163.531 L268.197,193.266 ZM268.197,118.932 L29.796,118.932 L29.796,29.732 L268.197,29.732 L268.197,118.932 Z"/>
</svg>